<?xml version="1.0" encoding="UTF-8" standalone="no"?>
<!DOCTYPE svg PUBLIC "-//W3C//DTD SVG 1.1//EN" "http://www.w3.org/Graphics/SVG/1.1/DTD/svg11.dtd">
<svg width="100%" height="100%" viewBox="0 0 913 325" version="1.1" xmlns="http://www.w3.org/2000/svg" xmlns:xlink="http://www.w3.org/1999/xlink" xml:space="preserve" xmlns:serif="http://www.serif.com/" style="fill-rule:evenodd;clip-rule:evenodd;stroke-linejoin:round;stroke-miterlimit:2;">
    <g id="Artboard1" transform="matrix(1,0,0,1,-63.685,-167.534)">
        <rect x="63.685" y="167.534" width="912.315" height="324.539" style="fill:none;"/>
        <clipPath id="_clip1">
            <rect x="63.685" y="167.534" width="912.315" height="324.539"/>
        </clipPath>
        <g clip-path="url(#_clip1)">
            <g transform="matrix(1,0,0,1,-12.8983,5.53362)">
                <g transform="matrix(1.13018,0,0,1.13018,11.9061,-161.458)">
                    <g transform="matrix(166.667,0,0,166.667,54,490)">
                        <path d="M0.392,-0L0.199,-0L0.199,-0.556L0.025,-0.556L0.025,-0.714L0.566,-0.714L0.566,-0.556L0.392,-0.556L0.392,-0Z" style="fill:rgb(20,20,20);fill-rule:nonzero;"/>
                    </g>
                    <g transform="matrix(166.667,0,0,166.667,152.47,490)">
                        <path d="M0.336,-0.563C0.406,-0.563 0.461,-0.546 0.5,-0.511C0.539,-0.476 0.559,-0.427 0.559,-0.363L0.559,-0L0.427,-0L0.39,-0.073L0.386,-0.073C0.371,-0.054 0.354,-0.038 0.338,-0.025C0.322,-0.013 0.303,-0.005 0.282,0.001C0.261,0.007 0.235,0.01 0.204,0.01C0.172,0.01 0.144,0.003 0.118,-0.01C0.093,-0.023 0.073,-0.042 0.058,-0.069C0.043,-0.095 0.036,-0.129 0.036,-0.169C0.036,-0.228 0.057,-0.272 0.098,-0.301C0.139,-0.329 0.198,-0.346 0.276,-0.349L0.368,-0.352L0.368,-0.36C0.368,-0.385 0.362,-0.402 0.35,-0.413C0.338,-0.423 0.321,-0.428 0.301,-0.428C0.279,-0.428 0.255,-0.424 0.228,-0.417C0.201,-0.409 0.174,-0.399 0.147,-0.387L0.092,-0.513C0.124,-0.529 0.16,-0.542 0.2,-0.55C0.241,-0.559 0.286,-0.563 0.336,-0.563ZM0.369,-0.247L0.325,-0.245C0.29,-0.244 0.265,-0.238 0.251,-0.227C0.237,-0.216 0.23,-0.2 0.23,-0.18C0.23,-0.161 0.235,-0.147 0.245,-0.138C0.255,-0.129 0.269,-0.125 0.285,-0.125C0.308,-0.125 0.328,-0.132 0.344,-0.147C0.361,-0.162 0.369,-0.181 0.369,-0.204L0.369,-0.247Z" style="fill:rgb(20,20,20);fill-rule:nonzero;"/>
                    </g>
                    <g transform="matrix(166.667,0,0,166.667,256.311,490)">
                        <path d="M0.257,-0.76L0.257,-0.588C0.257,-0.568 0.256,-0.55 0.255,-0.532C0.254,-0.514 0.252,-0.498 0.25,-0.482L0.257,-0.482C0.271,-0.504 0.29,-0.523 0.313,-0.539C0.336,-0.555 0.366,-0.563 0.404,-0.563C0.461,-0.563 0.508,-0.539 0.545,-0.49C0.582,-0.441 0.6,-0.37 0.6,-0.278C0.6,-0.215 0.592,-0.162 0.575,-0.119C0.558,-0.076 0.534,-0.044 0.503,-0.022C0.473,-0.001 0.438,0.01 0.398,0.01C0.359,0.01 0.329,0.003 0.309,-0.01C0.288,-0.024 0.271,-0.039 0.257,-0.054L0.245,-0.054L0.215,-0L0.066,-0L0.066,-0.76L0.257,-0.76ZM0.334,-0.413C0.316,-0.413 0.302,-0.409 0.291,-0.401C0.279,-0.393 0.271,-0.38 0.265,-0.363C0.26,-0.346 0.257,-0.324 0.257,-0.298L0.257,-0.271C0.257,-0.228 0.263,-0.196 0.274,-0.175C0.286,-0.154 0.306,-0.144 0.336,-0.144C0.358,-0.144 0.376,-0.156 0.388,-0.179C0.4,-0.202 0.406,-0.236 0.406,-0.28C0.406,-0.324 0.4,-0.357 0.388,-0.379C0.376,-0.402 0.358,-0.413 0.334,-0.413Z" style="fill:rgb(20,20,20);fill-rule:nonzero;"/>
                    </g>
                    <g transform="matrix(166.667,0,0,166.667,363.489,490)">
                        <rect x="0.066" y="-0.76" width="0.191" height="0.76" style="fill:rgb(20,20,20);fill-rule:nonzero;"/>
                    </g>
                    <g transform="matrix(166.667,0,0,166.667,417.363,490)">
                        <path d="M0.315,-0.563C0.369,-0.563 0.415,-0.554 0.454,-0.535C0.493,-0.516 0.523,-0.488 0.544,-0.451C0.566,-0.413 0.576,-0.366 0.576,-0.31L0.576,-0.225L0.235,-0.225C0.236,-0.196 0.247,-0.172 0.267,-0.154C0.287,-0.135 0.317,-0.126 0.356,-0.126C0.39,-0.126 0.422,-0.129 0.451,-0.136C0.48,-0.143 0.509,-0.154 0.54,-0.168L0.54,-0.031C0.513,-0.017 0.484,-0.007 0.453,-0C0.421,0.007 0.381,0.01 0.333,0.01C0.277,0.01 0.228,-0 0.184,-0.02C0.14,-0.04 0.105,-0.071 0.08,-0.112C0.055,-0.154 0.042,-0.208 0.042,-0.273C0.042,-0.339 0.053,-0.394 0.076,-0.437C0.099,-0.479 0.131,-0.511 0.172,-0.532C0.213,-0.553 0.261,-0.563 0.315,-0.563ZM0.322,-0.433C0.299,-0.433 0.28,-0.426 0.265,-0.412C0.25,-0.398 0.241,-0.375 0.239,-0.345L0.403,-0.345C0.403,-0.361 0.399,-0.376 0.393,-0.39C0.387,-0.403 0.378,-0.414 0.366,-0.421C0.354,-0.429 0.339,-0.433 0.322,-0.433Z" style="fill:rgb(20,20,20);fill-rule:nonzero;"/>
                    </g>
                    <g transform="matrix(166.667,0,0,166.667,520.39,490)">
                        <path d="M0.477,-0.17C0.477,-0.135 0.469,-0.104 0.454,-0.077C0.438,-0.05 0.413,-0.028 0.378,-0.013C0.344,0.002 0.299,0.01 0.243,0.01C0.204,0.01 0.168,0.008 0.137,0.003C0.106,-0.001 0.075,-0.009 0.043,-0.021L0.043,-0.174C0.078,-0.158 0.113,-0.146 0.149,-0.139C0.186,-0.132 0.214,-0.129 0.235,-0.129C0.256,-0.129 0.272,-0.131 0.282,-0.136C0.292,-0.141 0.297,-0.148 0.297,-0.157C0.297,-0.165 0.293,-0.172 0.287,-0.178C0.28,-0.184 0.268,-0.19 0.251,-0.198C0.234,-0.205 0.21,-0.215 0.179,-0.228C0.149,-0.241 0.123,-0.255 0.103,-0.27C0.082,-0.285 0.067,-0.302 0.057,-0.323C0.047,-0.344 0.042,-0.37 0.042,-0.4C0.042,-0.454 0.063,-0.495 0.104,-0.522C0.146,-0.549 0.201,-0.563 0.27,-0.563C0.306,-0.563 0.341,-0.559 0.373,-0.551C0.405,-0.543 0.439,-0.531 0.473,-0.516L0.421,-0.393C0.394,-0.405 0.366,-0.415 0.338,-0.423C0.31,-0.43 0.288,-0.434 0.271,-0.434C0.256,-0.434 0.244,-0.432 0.236,-0.428C0.228,-0.424 0.224,-0.419 0.224,-0.411C0.224,-0.404 0.227,-0.398 0.232,-0.393C0.238,-0.388 0.249,-0.382 0.265,-0.375C0.281,-0.368 0.304,-0.359 0.335,-0.346C0.367,-0.333 0.394,-0.319 0.415,-0.304C0.436,-0.29 0.451,-0.272 0.461,-0.25C0.472,-0.229 0.477,-0.202 0.477,-0.17Z" style="fill:rgb(20,20,20);fill-rule:nonzero;"/>
                    </g>
                </g>
                <g id="noun-dining-table-3234811.svg" transform="matrix(0.476563,0,0,0.476563,845,324.803)">
                    <g transform="matrix(1,0,0,1,-373,-340.5)">
                        <clipPath id="_clip2">
                            <rect x="0" y="0" width="746" height="681"/>
                        </clipPath>
                        <g clip-path="url(#_clip2)">
                            <g id="Artboard11" serif:id="Artboard1" transform="matrix(1,0,0,1,-149,-187)">
                                <rect x="149" y="187" width="746" height="681" style="fill:none;"/>
                                <g>
                                    <path d="M809.2,369L809.2,667C809.2,673.2 804.2,678.2 798,678.2L246,678.2C239.8,678.2 234.8,673.2 234.8,667L234.8,369C234.8,362.8 239.8,357.8 246,357.8L798,357.8C804.2,357.8 809.2,362.8 809.2,369ZM738.765,394.693L672.029,394.693L672.029,537.137C672.029,548.674 670.678,558.104 667.974,565.426C665.384,572.748 661.216,578.128 655.472,581.567C649.728,584.895 642.294,586.559 633.17,586.559C620.443,586.559 610.812,582.676 604.28,574.911C597.747,567.145 594.48,554.665 594.48,537.469L594.48,394.693L527.406,394.693L527.406,542.628C527.406,574.023 536.361,598.319 554.27,615.514C572.179,632.709 598.141,641.307 632.157,641.307C655.923,641.307 675.69,637.258 691.459,629.159C707.228,620.95 719.054,609.357 726.939,594.38C734.823,579.293 738.765,561.543 738.765,541.13L738.765,394.693ZM496.826,590.886L496.826,541.796L469.625,541.796L469.625,394.693L407.957,394.693L305.235,542.628L305.235,590.886L403.734,590.886L403.734,637.979L469.625,637.979L469.625,590.886L496.826,590.886ZM403.734,541.796L363.016,541.796L390.386,501.692C393.315,497.255 395.68,493.427 397.482,490.21C399.285,486.882 401.256,482.722 403.396,477.73L405.254,477.73C405.142,477.952 404.973,479.449 404.747,482.223C404.635,484.885 404.466,488.213 404.241,492.207L403.903,503.855C403.79,507.738 403.734,510.955 403.734,513.507L403.734,541.796Z" style="fill:rgb(0,123,255);"/>
                                    <g>
                                        <path d="M794.2,369L794.2,661.2C794.2,662.4 793.6,665.8 794.2,666.8C794.2,666.8 794.9,664.7 795.1,664.3C793.8,667.1 797,662.9 795.9,663.8C794.4,665 797.4,662.6 798,663.2C797.9,663.1 797.4,663.2 797.2,663.2C795.7,663 793.9,663.2 792.4,663.2L292.9,663.2C277.8,663.2 262.3,662.3 247.2,663.2C247.1,663.2 246.2,663.1 246.1,663.2C245.9,663.4 240,659.8 247.4,663.4C248.3,663.8 249.2,665 247.5,663.5C248,663.9 248.5,664.4 249,664.9C250.4,666.2 248.6,663.1 249.1,665C249.2,665.3 250.4,666.8 249.7,667C249.9,667 249.7,662.8 249.7,662.5L249.7,374.5C249.7,373.9 250.2,369.5 249.7,369.1C250.6,369.8 247.3,372.8 249.4,370.5C249,371 248.5,371.5 248,372C246.7,373.4 249.8,371.6 247.9,372.1C247.5,372.2 246.2,373.3 245.9,372.7C245.9,372.8 246.7,372.7 246.7,372.7C251.3,373.2 256.3,372.7 261,372.7L791.3,372.7C793,372.7 794.8,372.8 796.5,372.7C796.7,372.7 797.4,372.8 797.6,372.7L797.7,372.7C797.3,373.1 795.2,371.8 795.1,371.8C796,372.2 796.8,373.3 795.1,371.6C795,371.5 793.5,369.7 794.6,371C795.8,372.3 794.3,369.7 794.2,369C794.7,376.8 800.8,384.4 809.2,384C816.9,383.7 824.7,377.4 824.2,369C823.3,354.2 812.6,343.2 797.6,342.8L259.6,342.8C255.2,342.8 250.8,342.7 246.4,342.8C232.3,343.2 220.7,353.4 219.8,367.7C219.7,369.5 219.7,371.3 219.7,373.1L219.7,662.9C219.7,664.7 219.7,666.5 219.8,668.3C220.8,682.7 232.3,692.8 246.4,693.2C250.8,693.3 255.2,693.2 259.6,693.2L797.5,693.2C812.3,692.8 823.5,681.8 824.1,667C824.9,647.3 824.1,627.4 824.1,607.7L824.1,369.1C824.1,361.3 817.2,353.7 809.1,354.1C801.1,354.4 794.2,360.6 794.2,369Z" style="fill:rgb(0,123,255);fill-rule:nonzero;"/>
                                    </g>
                                </g>
                                <g>
                                    <path d="M476.3,251.7L459.8,297.7L311.3,297.7L294.8,251.7C293,244.6 298.4,237.7 305.7,237.7L465.4,237.7C472.7,237.8 478,244.6 476.3,251.7Z" style="fill:rgb(0,123,255);fill-rule:nonzero;"/>
                                    <g>
                                        <path d="M461.8,247.7C456.3,263 450.8,278.4 445.3,293.7C450.1,290 454.9,286.4 459.8,282.7L311.3,282.7C316.1,286.4 320.9,290 325.8,293.7C320.5,279 315.5,264.1 310,249.6C309.9,249.4 309.6,247.9 309.3,247.8C309.8,248 308.9,251.9 309.4,249.9C309.8,248.2 309.1,250.7 308.7,251.2C307.9,252.3 306.3,252.7 308.3,251.9C306,252.8 305,252.7 307.3,252.8C312,252.9 316.7,252.8 321.4,252.8L459.4,252.8C461.1,252.8 463,253.1 464.7,252.8L465.4,252.8C465.3,253.4 463.8,252.3 463.5,252.3C462.7,251.9 462.7,251.9 463.5,252.3C464.4,252.9 464.2,252.7 462.9,251.8C462.5,250.9 462.1,250.4 461.6,249.4C462.5,251.6 461.5,249.1 461.8,247.7C460.4,255.4 463.9,264.3 472.3,266.2C479.7,267.9 489.2,264 490.8,255.7C494.1,238.1 482.4,223 464.3,222.7C459.3,222.6 454.2,222.7 449.2,222.7L308.1,222.7C295.2,222.7 282.5,230.1 280.2,243.8C278.3,254.9 284.1,265.7 287.7,275.9C290.8,284.5 293.9,293.1 297,301.7C299.3,308 304.5,312.7 311.5,312.7L460,312.7C467,312.7 472.2,308 474.5,301.7C480,286.4 485.5,271 491,255.7C493.7,248.3 488,239 480.5,237.2C471.8,235.4 464.6,239.8 461.8,247.7Z" style="fill:rgb(0,123,255);fill-rule:nonzero;"/>
                                    </g>
                                </g>
                                <g>
                                    <path d="M311.3,738.2L459.8,738.2L476.3,784.2C478.1,791.3 472.7,798.2 465.4,798.2L305.7,798.2C298.4,798.2 293,791.3 294.8,784.2L311.3,738.2Z" style="fill:rgb(0,123,255);fill-rule:nonzero;"/>
                                    <g>
                                        <path d="M311.3,753.2L459.8,753.2C455,749.5 450.2,745.9 445.3,742.2C448.4,750.8 451.5,759.4 454.6,768C456.5,773.3 458.4,778.6 460.3,783.9C460.7,785 461,786.6 461.6,787.6L461.8,788.2C461.3,788.3 461.9,785.6 461.9,785.4C461.4,787.1 461.4,787 462,785.3C462.3,784.7 462.8,784.2 463.4,783.8C465,782.2 460.6,785.1 464.1,783.4L465.4,783.2L465.1,783.2C464.7,783 463.7,783.2 463.4,783.2L310.9,783.2C309.8,783.2 307,782.7 306,783.2L305.7,783.2C306.2,782.7 307.9,783.9 308.2,784.1C306,783.2 308.2,784.2 309,785.3C310.3,787 309.2,786.7 309.1,785.4C309.1,785.7 309.7,787.9 309.2,788.1C309.3,788.1 309.5,787.2 309.6,787C311.7,782.4 313.1,777.3 314.8,772.5C318.4,762.4 322.1,752.3 325.7,742.1C328.4,734.7 322.7,725.4 315.2,723.6C306.8,721.7 299.6,726.2 296.7,734.1C293.3,743.6 289.9,753.1 286.5,762.7C281.9,775.4 275.1,788.4 283.8,801.4C288.9,809 297.2,813 306.3,813.2L453.3,813.2C459,813.2 465.1,813.7 470.7,812.6C485,809.7 494.8,794.3 490.7,780.1C489.4,775.7 487.6,771.5 486.1,767.2C482.2,756.2 478.2,745.2 474.3,734.2C472,727.9 466.8,723.2 459.8,723.2L311.3,723.2C303.5,723.2 295.9,730.1 296.3,738.2C296.6,746.4 302.9,753.2 311.3,753.2Z" style="fill:rgb(0,123,255);fill-rule:nonzero;"/>
                                    </g>
                                </g>
                                <g>
                                    <path d="M759.2,251.7L742.7,297.7L594.3,297.7L577.8,251.7C576,244.6 581.4,237.7 588.7,237.7L748.4,237.7C755.7,237.8 761,244.6 759.2,251.7Z" style="fill:rgb(0,123,255);fill-rule:nonzero;"/>
                                    <g>
                                        <path d="M744.8,247.7C739.3,263 733.8,278.4 728.3,293.7C733.1,290 737.9,286.4 742.8,282.7L594.3,282.7C599.1,286.4 603.9,290 608.8,293.7C603.5,279 598.5,264.1 593,249.6C592.9,249.4 592.6,247.9 592.3,247.8C592.8,248 591.9,251.9 592.4,249.9C592.8,248.2 592.1,250.7 591.7,251.2C590.9,252.3 589.3,252.7 591.3,251.9C589,252.8 588,252.7 590.3,252.8C595,252.9 599.7,252.8 604.4,252.8L742.4,252.8C744.1,252.8 746,253.1 747.7,252.8L748.4,252.8C748.3,253.4 746.8,252.3 746.5,252.3C745.7,251.9 745.7,251.9 746.5,252.3C747.4,252.9 747.2,252.7 745.9,251.8C745.5,250.9 745.1,250.4 744.6,249.4C745.5,251.6 744.5,249.1 744.8,247.7C743.4,255.4 746.9,264.3 755.3,266.2C762.7,267.9 772.2,264 773.8,255.7C777.1,238.1 765.4,223 747.3,222.7C742.3,222.6 737.2,222.7 732.2,222.7L591.1,222.7C578.2,222.7 565.5,230.1 563.2,243.8C561.3,254.9 567.1,265.7 570.7,275.9C573.8,284.5 576.9,293.1 580,301.7C582.3,308 587.5,312.7 594.5,312.7L743,312.7C750,312.7 755.2,308 757.5,301.7C763,286.4 768.5,271 774,255.7C776.7,248.3 771,239 763.5,237.2C754.8,235.4 747.6,239.8 744.8,247.7Z" style="fill:rgb(0,123,255);fill-rule:nonzero;"/>
                                    </g>
                                </g>
                                <g>
                                    <path d="M594.3,738.2L742.8,738.2L759.3,784.2C761.1,791.3 755.7,798.2 748.4,798.2L588.7,798.2C581.4,798.2 576,791.3 577.8,784.2L594.3,738.2Z" style="fill:rgb(0,123,255);fill-rule:nonzero;"/>
                                    <g>
                                        <path d="M594.3,753.2L742.8,753.2C738,749.5 733.2,745.9 728.3,742.2C731.4,750.8 734.5,759.4 737.6,768C739.5,773.3 741.4,778.6 743.3,783.9C743.7,785 744,786.6 744.6,787.6L744.8,788.2C744.3,788.3 744.9,785.6 744.9,785.4C744.4,787.1 744.4,787 745,785.3C745.3,784.7 745.8,784.2 746.4,783.8C748,782.2 743.6,785.1 747.1,783.4L748.4,783.2L748.1,783.2C747.7,783 746.7,783.2 746.4,783.2L593.9,783.2C592.8,783.2 590,782.7 589,783.2L588.7,783.2C589.2,782.7 590.9,783.9 591.2,784.1C589,783.2 591.2,784.2 592,785.3C593.3,787 592.2,786.7 592.1,785.4C592.1,785.7 592.7,787.9 592.2,788.1C592.3,788.1 592.5,787.2 592.6,787C594.7,782.4 596.1,777.3 597.8,772.5C601.4,762.4 605.1,752.3 608.7,742.1C611.4,734.7 605.7,725.4 598.2,723.6C589.8,721.7 582.6,726.2 579.7,734.1C576.3,743.6 572.9,753.1 569.5,762.7C564.9,775.4 558.1,788.4 566.8,801.4C571.9,809 580.2,813 589.3,813.2L736.3,813.2C742,813.2 748.1,813.7 753.7,812.6C768,809.7 777.8,794.3 773.7,780.1C772.4,775.7 770.6,771.5 769.1,767.2C765.2,756.2 761.2,745.2 757.3,734.2C755,727.9 749.8,723.2 742.8,723.2L594.3,723.2C586.5,723.2 578.9,730.1 579.3,738.2C579.6,746.4 585.8,753.2 594.3,753.2Z" style="fill:rgb(0,123,255);fill-rule:nonzero;"/>
                                    </g>
                                </g>
                            </g>
                        </g>
                    </g>
                </g>
            </g>
        </g>
    </g>
</svg>
